<?xml version="1.0" encoding="iso-8859-1"?>
<!-- Uploaded to: SVG Repo, www.svgrepo.com, Generator: SVG Repo Mixer Tools -->
<svg fill="#000000" height="800px" width="800px" version="1.1" id="Layer_1" xmlns="http://www.w3.org/2000/svg" xmlns:xlink="http://www.w3.org/1999/xlink" 
	 viewBox="0 0 503.611 503.611" xml:space="preserve">
<g>
	<g>
		<g>
			<path d="M425.112,258.305c-3.811-2.627-9.04-1.67-11.675,2.149c-4.667,6.773-9.72,12.85-14.915,18.541l-19.07-19.07
				c16.636-21.58,27.069-47.003,30.267-74.097l-8.872-1.335c-31.66-7.118-38.711,7.26-50.377,31.064
				c-2.451,5.003-4.969,10.139-7.814,15.192c-2.443,4.323-9.644,17.097-21,17.097c-0.546,0-1.091-0.034-1.645-0.092
				c-10.794-1.158-15.956-13.136-17.5-17.542c-11.642-18.717-16.199-23.065-17.702-24.064c-0.143,0.034-0.294,0.067-0.453,0.101
				c-8.696,1.872-16.174-0.126-30.72-15.897c-15.049-16.308-20.975-29.738-18.096-41.052c2.711-10.71,12.095-14.193,13.161-14.554
				c1.016-0.352,2.073-0.504,3.148-0.436c10.164,0.537,20.237-16.476,24.542-26.397c-1.519-15.175,1.771-25.281,9.82-30.074
				c12.397-7.361,29.31,2.367,35.504,6.48c3.861,0.462,9.166,0.571,11.373-2.098c3.542-4.264,2.367-16.367-2.971-30.812
				l-4.717-13.262l-22.251,3.71c-10.593,1.477-29.025,6.849-34.371,15.133c-1.536,2.359-1.813,4.768-0.923,7.789
				c0.722,2.434,0.294,5.061-1.15,7.143c-1.435,2.082-3.743,3.408-6.27,3.601c-21.747,1.645-48.12,7.462-52.702,13.497
				c-3.005,3.945-5.917,5.12-8.318,5.12c-1.796,0-3.307-0.655-4.373-1.309c-6.799-4.18-4.247-9.417,1.335-20.9
				c4.961-10.198,13.253-27.27,19.926-45.039l1.486-4.121c-9.476,2.728-18.642,6.379-27.388,10.911l-8.645,23.359
				c-0.101,0.277-0.218,0.546-0.336,0.797c-4.323,8.78-18.096,40.8-13.983,84.06c0.034,0,3.03,17.064-7.756,29.847
				c-7.227,8.578-18.415,12.926-33.263,12.926c-0.336,0-0.68-0.008-1.016-0.008h-15.687c3.735,33.993,18.717,65.502,43.26,90.036
				c2.241,2.241,4.633,4.255,6.975,6.329l-0.839-11.835c-1.175-8.956-6.455-56.731,9.72-71.546c4.65-4.247,10.744-5.85,17.24-4.398
				c25.583,5.632,31.937,28.991,31.786,41.279c0.512,2.946,4.088,16.921,25.298,17.282c35.781,0.604,56.941,44.913,57.822,46.802
				l6.664,12.498c21.966-7.319,42.143-19.557,58.989-36.411c0.646-0.646,1.217-1.351,1.855-2.006l18.054,18.054
				c-69.095,61.532-176.296,59.761-243.041-5.632c-33.188-32.533-51.594-76.229-51.838-123.056
				c-0.218-44.821,16.258-87.015,46.256-119.934l17.064,17.064c-0.663,0.63-1.36,1.209-2.006,1.855
				c-28.538,28.529-44.25,66.476-44.25,106.832h16.787c10.475,0.008,17.341-2.199,21.344-6.95c5.54-6.572,3.987-16.611,3.97-16.711
				c-3.525-36.839,4.188-65.712,10.676-82.566c1.972-0.117,3.928-0.848,5.447-2.359c3.273-3.282,3.273-8.595,0-11.868l-17.19-17.19
				c5.892-5.355,12.003-10.45,18.491-14.924c3.827-2.636,4.784-7.865,2.149-11.675c-2.636-3.819-7.865-4.776-11.667-2.149
				c-7.328,5.053-14.227,10.811-20.841,16.879L125.752,6.224c-3.282-3.282-8.586-3.282-11.868,0c-3.282,3.273-3.282,8.586,0,11.868
				l12.011,12.011c-33.196,36.125-51.267,82.684-51.024,132.046c0.269,51.334,20.463,99.261,56.874,134.95
				c31.098,30.477,70.261,48.145,110.793,53.441l-7.336,102.711h-34.153c-23.141,0-41.967,18.826-41.967,41.967
				c0,4.633,3.752,8.393,8.393,8.393h201.443c4.633,0,8.393-3.76,8.393-8.393c0-23.141-18.827-41.967-41.967-41.967h-34.161
				l-7.336-102.702c37.938-4.944,74.542-20.925,104.565-47.927l12.221,12.221c1.645,1.645,3.794,2.459,5.934,2.459
				c2.149,0,4.297-0.814,5.934-2.459c3.282-3.273,3.282-8.586,0-11.868l-12.112-12.12c5.901-6.404,11.616-13.253,16.871-20.874
				C429.888,266.169,428.931,260.932,425.112,258.305z"/>
			<path d="M317.157,100.608c-1.259-0.21-2.451-0.722-3.492-1.46c-6.992-4.994-16.325-8.385-18.877-6.883
				c-0.898,0.537-2.929,4.432-1.477,15.788c0.176,1.402,0,2.829-0.52,4.138c-1.57,3.995-15.629,37.905-39.399,38.895
				c-0.579,0.436-1.343,1.234-1.62,2.484c-0.411,1.897-0.63,9.333,14.193,25.39c10.828,11.734,13.572,11.147,14.882,10.87
				c11.726-2.468,18.583,3.525,36.453,32.374c0.369,0.613,0.672,1.259,0.881,1.947c0.789,2.493,2.409,5.431,3.567,6.614
				c0.982-0.697,3.156-2.719,6.278-8.259c2.686-4.767,5.061-9.61,7.369-14.336c11.499-23.46,24.526-50.042,68.541-40.171
				l6.891,1.032c0-0.386,0.059-0.772,0.059-1.158c0-40.356-15.721-78.294-44.259-106.832c-6.715-6.715-13.984-12.649-21.638-17.903
				l0.898,2.543c5.515,14.898,10.047,35.269,0.126,47.247C339.971,100.238,330.243,102.798,317.157,100.608z"/>
			<path d="M254.686,47.854c11.256-17.391,42.429-22.117,45.946-22.595l5.968-0.999c-14.932-4.843-30.653-7.47-46.802-7.47
				c-7.68,0-15.226,0.747-22.687,1.863l-5.053,14.025c-4.507,12.028-9.669,23.594-14.118,33.095
				c11.239-3.357,23.77-5.212,32.718-6.203C250.984,55.442,252.336,51.488,254.686,47.854z"/>
			<path d="M182.455,209.644c-1.519-0.336-1.88,0.017-2.291,0.386c-6.295,5.766-7.344,34.38-4.365,57.487l1.947,27.17
				c24.232,15.746,52.476,24.266,82.054,24.266c10.635,0,21.084-1.158,31.257-3.29l-5.095-9.543
				c-0.361-0.747-17.802-37.099-43.092-37.527c-30.351-0.52-40.599-21.605-41.774-32.693c-0.042-0.386-0.059-0.797-0.042-1.2
				C201.106,232.617,201.038,213.732,182.455,209.644z"/>
		</g>
	</g>
</g>
</svg>